<svg width="281" height="281" viewBox="0 0 281 281" fill="none" xmlns="http://www.w3.org/2000/svg">
<rect width="281" height="281" rx="48.7449" fill="#4358F6"/>
<path fill-rule="evenodd" clip-rule="evenodd" d="M132.708 68.3306C135.937 67.0657 139.525 67.0676 142.752 68.3359L235.896 104.937C237.57 105.594 238.671 107.21 238.671 109.009V173.051C238.671 174.091 238.028 175.022 237.055 175.39L230.493 177.873C228.857 178.492 227.108 177.283 227.108 175.535V114.239C227.108 112.477 225.334 111.268 223.694 111.912L142.752 143.718C139.525 144.986 135.937 144.988 132.708 143.723L45.3925 109.519C42.2162 108.274 42.2162 103.779 45.3924 102.535L132.708 68.3306ZM144.688 154.099L213.127 126.508C215.181 125.68 217.421 127.191 217.421 129.406V180.952C217.421 182.203 216.675 183.333 215.526 183.825L147.087 213.135C145.025 214.018 142.731 212.505 142.731 210.262V156.998C142.731 155.723 143.506 154.576 144.688 154.099Z" fill="white"/>
<path fill-rule="evenodd" clip-rule="evenodd" d="M46.4205 178.969C45.7021 178.687 45.2294 177.994 45.2294 177.223V121.028C45.2294 119.707 46.5585 118.8 47.7883 119.282L59.0386 123.689C59.757 123.97 60.2297 124.663 60.2297 125.435V181.63C60.2297 182.951 58.9006 183.858 57.6707 183.376L46.4205 178.969ZM128.922 211.288C130.152 211.769 131.481 210.863 131.481 209.542V153.347C131.481 152.575 131.009 151.882 130.29 151.601L119.04 147.194C117.81 146.712 116.481 147.619 116.481 148.939V205.135C116.481 205.906 116.954 206.599 117.672 206.881L128.922 211.288ZM105.172 201.984C106.402 202.465 107.731 201.559 107.731 200.238V144.043C107.731 143.271 107.258 142.578 106.54 142.297L95.2894 137.89C94.0596 137.408 92.7305 138.315 92.7305 139.635V195.831C92.7305 196.602 93.2032 197.295 93.9216 197.577L105.172 201.984ZM81.4212 192.68C82.6511 193.162 83.9802 192.255 83.9802 190.934V134.739C83.9802 133.967 83.5075 133.274 82.7891 132.993L71.5388 128.586C70.309 128.104 68.9799 129.011 68.9799 130.332V186.527C68.9799 187.298 69.4526 187.991 70.171 188.273L81.4212 192.68Z" fill="#FFD159"/>
</svg>
